<svg width="129" height="129" viewBox="0 0 129 129" fill="none" xmlns="http://www.w3.org/2000/svg">
<path d="M128.497 64.4969C128.497 29.1969 99.7969 0.496872 64.4969 0.496872C29.1969 0.496872 0.496872 29.1969 0.496872 64.4969C0.496872 99.7969 29.1969 128.497 64.4969 128.497C99.7969 128.497 128.497 99.7969 128.497 64.4969ZM6.89687 64.4969C6.89687 32.6969 32.6969 6.89687 64.4969 6.89687C96.2969 6.89687 122.097 32.6969 122.097 64.4969C122.097 96.2969 96.2969 122.097 64.4969 122.097C32.6969 122.097 6.89687 96.2969 6.89687 64.4969ZM90.0969 49.6969L64.4969 74.0969L38.8969 49.6969L38.8969 63.1969L64.4969 86.8969L90.0969 63.1969V49.6969Z" fill="#0A0A0A"/>
</svg>
